<mxfile host="65bd71144e">
    <diagram id="B2Imsyf_CLR86bu_pUIC" name="Page-1">
        <mxGraphModel dx="828" dy="450" grid="0" gridSize="10" guides="1" tooltips="1" connect="1" arrows="1" fold="1" page="1" pageScale="1" pageWidth="850" pageHeight="1100" math="0" shadow="0">
            <root>
                <mxCell id="0"/>
                <mxCell id="1" parent="0"/>
                <mxCell id="201" value="BlueWallet" style="swimlane;" parent="1" vertex="1">
                    <mxGeometry x="40" y="40" width="310" height="470" as="geometry"/>
                </mxCell>
                <mxCell id="307" value="Seed Wallet" style="rounded=1;whiteSpace=wrap;html=1;absoluteArcSize=1;arcSize=14;strokeWidth=2;" parent="201" vertex="1">
                    <mxGeometry x="155" y="222.5" width="80" height="60" as="geometry"/>
                </mxCell>
                <mxCell id="311" value="Seed Wallet" style="rounded=1;whiteSpace=wrap;html=1;absoluteArcSize=1;arcSize=14;strokeWidth=2;" parent="201" vertex="1">
                    <mxGeometry x="35" y="222.5" width="80" height="60" as="geometry"/>
                </mxCell>
                <mxCell id="312" value="Address" style="rounded=1;whiteSpace=wrap;html=1;absoluteArcSize=1;arcSize=14;strokeWidth=2;" parent="201" vertex="1">
                    <mxGeometry x="215" y="302.5" width="60" height="40" as="geometry"/>
                </mxCell>
                <mxCell id="306" style="edgeStyle=orthogonalEdgeStyle;rounded=0;orthogonalLoop=1;jettySize=auto;html=1;exitX=0.5;exitY=1;exitDx=0;exitDy=0;entryX=0;entryY=0.5;entryDx=0;entryDy=0;" parent="201" source="307" target="312" edge="1">
                    <mxGeometry relative="1" as="geometry"/>
                </mxCell>
                <mxCell id="313" value="Address" style="rounded=1;whiteSpace=wrap;html=1;absoluteArcSize=1;arcSize=14;strokeWidth=2;" parent="201" vertex="1">
                    <mxGeometry x="215" y="352.5" width="60" height="40" as="geometry"/>
                </mxCell>
                <mxCell id="305" style="edgeStyle=orthogonalEdgeStyle;rounded=0;orthogonalLoop=1;jettySize=auto;html=1;exitX=0.5;exitY=1;exitDx=0;exitDy=0;entryX=0;entryY=0.5;entryDx=0;entryDy=0;" parent="201" source="307" target="313" edge="1">
                    <mxGeometry relative="1" as="geometry"/>
                </mxCell>
                <mxCell id="314" value="Address" style="rounded=1;whiteSpace=wrap;html=1;absoluteArcSize=1;arcSize=14;strokeWidth=2;" parent="201" vertex="1">
                    <mxGeometry x="215" y="402.5" width="60" height="40" as="geometry"/>
                </mxCell>
                <mxCell id="304" style="edgeStyle=orthogonalEdgeStyle;rounded=0;orthogonalLoop=1;jettySize=auto;html=1;exitX=0.5;exitY=1;exitDx=0;exitDy=0;entryX=0;entryY=0.5;entryDx=0;entryDy=0;" parent="201" source="307" target="314" edge="1">
                    <mxGeometry relative="1" as="geometry"/>
                </mxCell>
                <mxCell id="315" value="Address" style="rounded=1;whiteSpace=wrap;html=1;absoluteArcSize=1;arcSize=14;strokeWidth=2;" parent="201" vertex="1">
                    <mxGeometry x="95" y="302.5" width="60" height="40" as="geometry"/>
                </mxCell>
                <mxCell id="310" style="edgeStyle=orthogonalEdgeStyle;rounded=0;orthogonalLoop=1;jettySize=auto;html=1;exitX=0.5;exitY=1;exitDx=0;exitDy=0;entryX=0;entryY=0.5;entryDx=0;entryDy=0;" parent="201" source="311" target="315" edge="1">
                    <mxGeometry relative="1" as="geometry"/>
                </mxCell>
                <mxCell id="316" value="Address" style="rounded=1;whiteSpace=wrap;html=1;absoluteArcSize=1;arcSize=14;strokeWidth=2;" parent="201" vertex="1">
                    <mxGeometry x="95" y="352.5" width="60" height="40" as="geometry"/>
                </mxCell>
                <mxCell id="309" style="edgeStyle=orthogonalEdgeStyle;rounded=0;orthogonalLoop=1;jettySize=auto;html=1;exitX=0.5;exitY=1;exitDx=0;exitDy=0;entryX=0;entryY=0.5;entryDx=0;entryDy=0;" parent="201" source="311" target="316" edge="1">
                    <mxGeometry relative="1" as="geometry"/>
                </mxCell>
                <mxCell id="317" value="Address" style="rounded=1;whiteSpace=wrap;html=1;absoluteArcSize=1;arcSize=14;strokeWidth=2;" parent="201" vertex="1">
                    <mxGeometry x="95" y="402.5" width="60" height="40" as="geometry"/>
                </mxCell>
                <mxCell id="308" style="edgeStyle=orthogonalEdgeStyle;rounded=0;orthogonalLoop=1;jettySize=auto;html=1;exitX=0.5;exitY=1;exitDx=0;exitDy=0;entryX=0;entryY=0.5;entryDx=0;entryDy=0;" parent="201" source="311" target="317" edge="1">
                    <mxGeometry relative="1" as="geometry"/>
                </mxCell>
                <mxCell id="318" value="" style="shape=curlyBracket;whiteSpace=wrap;html=1;rounded=1;flipH=1;rotation=-90;" parent="201" vertex="1">
                    <mxGeometry x="110" y="82.5" width="47.5" height="205" as="geometry"/>
                </mxCell>
                <mxCell id="319" value="independant" style="text;html=1;strokeColor=none;fillColor=none;align=center;verticalAlign=middle;whiteSpace=wrap;rounded=0;" parent="201" vertex="1">
                    <mxGeometry x="117.5" y="142.5" width="40" height="20" as="geometry"/>
                </mxCell>
                <mxCell id="514" value="&lt;h1&gt;BlueWallet Con&lt;/h1&gt;&lt;p&gt;Blue Wallet has no conception of &quot;Account&quot;&lt;/p&gt;" style="text;html=1;strokeColor=none;fillColor=none;spacing=5;spacingTop=-20;whiteSpace=wrap;overflow=hidden;rounded=0;" parent="201" vertex="1">
                    <mxGeometry x="29.380000000000003" y="51" width="251.25" height="78" as="geometry"/>
                </mxCell>
                <mxCell id="265" value="RavenWallet" style="swimlane;" parent="1" vertex="1">
                    <mxGeometry x="1076" y="48" width="390" height="470" as="geometry"/>
                </mxCell>
                <mxCell id="285" style="edgeStyle=orthogonalEdgeStyle;rounded=0;orthogonalLoop=1;jettySize=auto;html=1;" parent="1" source="287" target="291" edge="1">
                    <mxGeometry relative="1" as="geometry">
                        <Array as="points">
                            <mxPoint x="1263.88" y="193"/>
                            <mxPoint x="1362.88" y="193"/>
                        </Array>
                    </mxGeometry>
                </mxCell>
                <mxCell id="286" style="edgeStyle=orthogonalEdgeStyle;rounded=0;orthogonalLoop=1;jettySize=auto;html=1;" parent="1" source="287" target="295" edge="1">
                    <mxGeometry relative="1" as="geometry">
                        <Array as="points">
                            <mxPoint x="1263.88" y="193"/>
                            <mxPoint x="1157.88" y="193"/>
                        </Array>
                    </mxGeometry>
                </mxCell>
                <mxCell id="287" value="Master Seed&lt;br&gt;(can export all &quot;acounts/wallets&quot; at once)&lt;br&gt;(not BIP44)" style="rounded=1;whiteSpace=wrap;html=1;absoluteArcSize=1;arcSize=14;strokeWidth=2;" parent="1" vertex="1">
                    <mxGeometry x="1099.13" y="113" width="330" height="60" as="geometry"/>
                </mxCell>
                <mxCell id="288" style="edgeStyle=orthogonalEdgeStyle;rounded=0;orthogonalLoop=1;jettySize=auto;html=1;exitX=0.5;exitY=1;exitDx=0;exitDy=0;entryX=0;entryY=0.5;entryDx=0;entryDy=0;" parent="1" source="291" target="298" edge="1">
                    <mxGeometry relative="1" as="geometry"/>
                </mxCell>
                <mxCell id="289" style="edgeStyle=orthogonalEdgeStyle;rounded=0;orthogonalLoop=1;jettySize=auto;html=1;exitX=0.5;exitY=1;exitDx=0;exitDy=0;entryX=0;entryY=0.5;entryDx=0;entryDy=0;" parent="1" source="291" target="297" edge="1">
                    <mxGeometry relative="1" as="geometry"/>
                </mxCell>
                <mxCell id="290" style="edgeStyle=orthogonalEdgeStyle;rounded=0;orthogonalLoop=1;jettySize=auto;html=1;exitX=0.5;exitY=1;exitDx=0;exitDy=0;entryX=0;entryY=0.5;entryDx=0;entryDy=0;" parent="1" source="291" target="296" edge="1">
                    <mxGeometry relative="1" as="geometry"/>
                </mxCell>
                <mxCell id="291" value="Seed Wallet" style="rounded=1;whiteSpace=wrap;html=1;absoluteArcSize=1;arcSize=14;strokeWidth=2;" parent="1" vertex="1">
                    <mxGeometry x="1322.88" y="280.5" width="80" height="60" as="geometry"/>
                </mxCell>
                <mxCell id="292" style="edgeStyle=orthogonalEdgeStyle;rounded=0;orthogonalLoop=1;jettySize=auto;html=1;exitX=0.5;exitY=1;exitDx=0;exitDy=0;entryX=0;entryY=0.5;entryDx=0;entryDy=0;" parent="1" source="295" target="301" edge="1">
                    <mxGeometry relative="1" as="geometry"/>
                </mxCell>
                <mxCell id="293" style="edgeStyle=orthogonalEdgeStyle;rounded=0;orthogonalLoop=1;jettySize=auto;html=1;exitX=0.5;exitY=1;exitDx=0;exitDy=0;entryX=0;entryY=0.5;entryDx=0;entryDy=0;" parent="1" source="295" target="300" edge="1">
                    <mxGeometry relative="1" as="geometry"/>
                </mxCell>
                <mxCell id="294" style="edgeStyle=orthogonalEdgeStyle;rounded=0;orthogonalLoop=1;jettySize=auto;html=1;exitX=0.5;exitY=1;exitDx=0;exitDy=0;entryX=0;entryY=0.5;entryDx=0;entryDy=0;" parent="1" source="295" target="299" edge="1">
                    <mxGeometry relative="1" as="geometry"/>
                </mxCell>
                <mxCell id="295" value="Seed&amp;nbsp;Wallet" style="rounded=1;whiteSpace=wrap;html=1;absoluteArcSize=1;arcSize=14;strokeWidth=2;" parent="1" vertex="1">
                    <mxGeometry x="1117.88" y="280.5" width="80" height="60" as="geometry"/>
                </mxCell>
                <mxCell id="296" value="Address" style="rounded=1;whiteSpace=wrap;html=1;absoluteArcSize=1;arcSize=14;strokeWidth=2;" parent="1" vertex="1">
                    <mxGeometry x="1382.88" y="360.5" width="60" height="40" as="geometry"/>
                </mxCell>
                <mxCell id="297" value="Address" style="rounded=1;whiteSpace=wrap;html=1;absoluteArcSize=1;arcSize=14;strokeWidth=2;" parent="1" vertex="1">
                    <mxGeometry x="1382.88" y="410.5" width="60" height="40" as="geometry"/>
                </mxCell>
                <mxCell id="298" value="Address" style="rounded=1;whiteSpace=wrap;html=1;absoluteArcSize=1;arcSize=14;strokeWidth=2;" parent="1" vertex="1">
                    <mxGeometry x="1382.88" y="460.5" width="60" height="40" as="geometry"/>
                </mxCell>
                <mxCell id="299" value="Address" style="rounded=1;whiteSpace=wrap;html=1;absoluteArcSize=1;arcSize=14;strokeWidth=2;" parent="1" vertex="1">
                    <mxGeometry x="1177.88" y="360.5" width="60" height="40" as="geometry"/>
                </mxCell>
                <mxCell id="300" value="Address" style="rounded=1;whiteSpace=wrap;html=1;absoluteArcSize=1;arcSize=14;strokeWidth=2;" parent="1" vertex="1">
                    <mxGeometry x="1177.88" y="410.5" width="60" height="40" as="geometry"/>
                </mxCell>
                <mxCell id="301" value="Address" style="rounded=1;whiteSpace=wrap;html=1;absoluteArcSize=1;arcSize=14;strokeWidth=2;" parent="1" vertex="1">
                    <mxGeometry x="1177.88" y="460.5" width="60" height="40" as="geometry"/>
                </mxCell>
                <mxCell id="302" value="" style="shape=curlyBracket;whiteSpace=wrap;html=1;rounded=1;flipH=1;rotation=-90;" parent="1" vertex="1">
                    <mxGeometry x="1251.3200000000002" y="111.44" width="25.62" height="290" as="geometry"/>
                </mxCell>
                <mxCell id="303" value="can be exported independantly&lt;br&gt;(BIP44 compliant)" style="text;html=1;strokeColor=none;fillColor=none;align=center;verticalAlign=middle;whiteSpace=wrap;rounded=0;" parent="1" vertex="1">
                    <mxGeometry x="1176" y="203" width="170" height="45" as="geometry"/>
                </mxCell>
                <mxCell id="320" value="" style="endArrow=none;html=1;strokeColor=#FF0000;" parent="1" edge="1">
                    <mxGeometry width="50" height="50" relative="1" as="geometry">
                        <mxPoint x="1064" y="37" as="sourcePoint"/>
                        <mxPoint x="1488" y="543" as="targetPoint"/>
                    </mxGeometry>
                </mxCell>
                <mxCell id="321" value="" style="endArrow=none;html=1;strokeColor=#FF0000;" parent="1" edge="1">
                    <mxGeometry width="50" height="50" relative="1" as="geometry">
                        <mxPoint x="1466" y="27" as="sourcePoint"/>
                        <mxPoint x="1063" y="528" as="targetPoint"/>
                    </mxGeometry>
                </mxCell>
                <mxCell id="362" value="RavenWallet" style="swimlane;" parent="1" vertex="1">
                    <mxGeometry x="40" y="529" width="789" height="541" as="geometry"/>
                </mxCell>
                <mxCell id="369" value="Blessed Seed Wallet" style="rounded=1;whiteSpace=wrap;html=1;absoluteArcSize=1;arcSize=14;strokeWidth=2;" parent="362" vertex="1">
                    <mxGeometry x="371.2500000000001" y="293.25" width="80" height="60" as="geometry"/>
                </mxCell>
                <mxCell id="373" value="Blessed Seed&amp;nbsp;Wallet" style="rounded=1;whiteSpace=wrap;html=1;absoluteArcSize=1;arcSize=14;strokeWidth=2;" parent="362" vertex="1">
                    <mxGeometry x="166.2500000000001" y="293.25" width="80" height="60" as="geometry"/>
                </mxCell>
                <mxCell id="374" value="Address" style="rounded=1;whiteSpace=wrap;html=1;absoluteArcSize=1;arcSize=14;strokeWidth=2;" parent="362" vertex="1">
                    <mxGeometry x="431.2500000000001" y="373.25" width="60" height="40" as="geometry"/>
                </mxCell>
                <mxCell id="368" style="edgeStyle=orthogonalEdgeStyle;rounded=0;orthogonalLoop=1;jettySize=auto;html=1;exitX=0.5;exitY=1;exitDx=0;exitDy=0;entryX=0;entryY=0.5;entryDx=0;entryDy=0;" parent="362" source="369" target="374" edge="1">
                    <mxGeometry relative="1" as="geometry"/>
                </mxCell>
                <mxCell id="375" value="Address" style="rounded=1;whiteSpace=wrap;html=1;absoluteArcSize=1;arcSize=14;strokeWidth=2;" parent="362" vertex="1">
                    <mxGeometry x="431.2500000000001" y="423.25" width="60" height="40" as="geometry"/>
                </mxCell>
                <mxCell id="367" style="edgeStyle=orthogonalEdgeStyle;rounded=0;orthogonalLoop=1;jettySize=auto;html=1;exitX=0.5;exitY=1;exitDx=0;exitDy=0;entryX=0;entryY=0.5;entryDx=0;entryDy=0;" parent="362" source="369" target="375" edge="1">
                    <mxGeometry relative="1" as="geometry"/>
                </mxCell>
                <mxCell id="376" value="Address" style="rounded=1;whiteSpace=wrap;html=1;absoluteArcSize=1;arcSize=14;strokeWidth=2;" parent="362" vertex="1">
                    <mxGeometry x="431.2500000000001" y="473.25" width="60" height="40" as="geometry"/>
                </mxCell>
                <mxCell id="366" style="edgeStyle=orthogonalEdgeStyle;rounded=0;orthogonalLoop=1;jettySize=auto;html=1;exitX=0.5;exitY=1;exitDx=0;exitDy=0;entryX=0;entryY=0.5;entryDx=0;entryDy=0;" parent="362" source="369" target="376" edge="1">
                    <mxGeometry relative="1" as="geometry"/>
                </mxCell>
                <mxCell id="377" value="Address" style="rounded=1;whiteSpace=wrap;html=1;absoluteArcSize=1;arcSize=14;strokeWidth=2;" parent="362" vertex="1">
                    <mxGeometry x="226.2500000000001" y="373.25" width="60" height="40" as="geometry"/>
                </mxCell>
                <mxCell id="372" style="edgeStyle=orthogonalEdgeStyle;rounded=0;orthogonalLoop=1;jettySize=auto;html=1;exitX=0.5;exitY=1;exitDx=0;exitDy=0;entryX=0;entryY=0.5;entryDx=0;entryDy=0;" parent="362" source="373" target="377" edge="1">
                    <mxGeometry relative="1" as="geometry"/>
                </mxCell>
                <mxCell id="378" value="Address" style="rounded=1;whiteSpace=wrap;html=1;absoluteArcSize=1;arcSize=14;strokeWidth=2;" parent="362" vertex="1">
                    <mxGeometry x="226.2500000000001" y="423.25" width="60" height="40" as="geometry"/>
                </mxCell>
                <mxCell id="371" style="edgeStyle=orthogonalEdgeStyle;rounded=0;orthogonalLoop=1;jettySize=auto;html=1;exitX=0.5;exitY=1;exitDx=0;exitDy=0;entryX=0;entryY=0.5;entryDx=0;entryDy=0;" parent="362" source="373" target="378" edge="1">
                    <mxGeometry relative="1" as="geometry"/>
                </mxCell>
                <mxCell id="379" value="Address" style="rounded=1;whiteSpace=wrap;html=1;absoluteArcSize=1;arcSize=14;strokeWidth=2;" parent="362" vertex="1">
                    <mxGeometry x="226.2500000000001" y="473.25" width="60" height="40" as="geometry"/>
                </mxCell>
                <mxCell id="370" style="edgeStyle=orthogonalEdgeStyle;rounded=0;orthogonalLoop=1;jettySize=auto;html=1;exitX=0.5;exitY=1;exitDx=0;exitDy=0;entryX=0;entryY=0.5;entryDx=0;entryDy=0;" parent="362" source="373" target="379" edge="1">
                    <mxGeometry relative="1" as="geometry"/>
                </mxCell>
                <mxCell id="380" value="" style="shape=curlyBracket;whiteSpace=wrap;html=1;rounded=1;flipH=1;rotation=-90;" parent="362" vertex="1">
                    <mxGeometry x="178.1" y="114.34" width="25.62" height="309.7" as="geometry"/>
                </mxCell>
                <mxCell id="381" value="Account 1" style="text;html=1;strokeColor=none;fillColor=none;align=center;verticalAlign=middle;whiteSpace=wrap;rounded=0;" parent="362" vertex="1">
                    <mxGeometry x="105.91" y="235" width="170" height="21.25" as="geometry"/>
                </mxCell>
                <mxCell id="397" value="Account 2" style="text;html=1;strokeColor=none;fillColor=none;align=center;verticalAlign=middle;whiteSpace=wrap;rounded=0;" parent="362" vertex="1">
                    <mxGeometry x="500" y="236.25" width="76.5" height="20" as="geometry"/>
                </mxCell>
                <mxCell id="382" value="Imported Seed Wallet" style="rounded=1;whiteSpace=wrap;html=1;absoluteArcSize=1;arcSize=14;strokeWidth=2;" parent="362" vertex="1">
                    <mxGeometry x="629.5" y="293.25" width="80" height="60" as="geometry"/>
                </mxCell>
                <mxCell id="384" value="Address" style="rounded=1;whiteSpace=wrap;html=1;absoluteArcSize=1;arcSize=14;strokeWidth=2;" parent="362" vertex="1">
                    <mxGeometry x="689.5" y="373.25" width="60" height="40" as="geometry"/>
                </mxCell>
                <mxCell id="385" style="edgeStyle=orthogonalEdgeStyle;rounded=0;orthogonalLoop=1;jettySize=auto;html=1;exitX=0.5;exitY=1;exitDx=0;exitDy=0;entryX=0;entryY=0.5;entryDx=0;entryDy=0;" parent="362" source="382" target="384" edge="1">
                    <mxGeometry relative="1" as="geometry"/>
                </mxCell>
                <mxCell id="386" value="Address" style="rounded=1;whiteSpace=wrap;html=1;absoluteArcSize=1;arcSize=14;strokeWidth=2;" parent="362" vertex="1">
                    <mxGeometry x="689.5" y="423.25" width="60" height="40" as="geometry"/>
                </mxCell>
                <mxCell id="387" style="edgeStyle=orthogonalEdgeStyle;rounded=0;orthogonalLoop=1;jettySize=auto;html=1;exitX=0.5;exitY=1;exitDx=0;exitDy=0;entryX=0;entryY=0.5;entryDx=0;entryDy=0;" parent="362" source="382" target="386" edge="1">
                    <mxGeometry relative="1" as="geometry"/>
                </mxCell>
                <mxCell id="388" value="Address" style="rounded=1;whiteSpace=wrap;html=1;absoluteArcSize=1;arcSize=14;strokeWidth=2;" parent="362" vertex="1">
                    <mxGeometry x="689.5" y="473.25" width="60" height="40" as="geometry"/>
                </mxCell>
                <mxCell id="389" style="edgeStyle=orthogonalEdgeStyle;rounded=0;orthogonalLoop=1;jettySize=auto;html=1;exitX=0.5;exitY=1;exitDx=0;exitDy=0;entryX=0;entryY=0.5;entryDx=0;entryDy=0;" parent="362" source="382" target="388" edge="1">
                    <mxGeometry relative="1" as="geometry"/>
                </mxCell>
                <mxCell id="410" style="edgeStyle=orthogonalEdgeStyle;rounded=0;orthogonalLoop=1;jettySize=auto;html=1;entryX=0;entryY=0.5;entryDx=0;entryDy=0;strokeColor=#F0F0F0;" parent="362" source="407" target="408" edge="1">
                    <mxGeometry relative="1" as="geometry"/>
                </mxCell>
                <mxCell id="407" value="Imported PK Wallet" style="rounded=1;whiteSpace=wrap;html=1;absoluteArcSize=1;arcSize=14;strokeWidth=2;" parent="362" vertex="1">
                    <mxGeometry x="265.5" y="293.25" width="80" height="60" as="geometry"/>
                </mxCell>
                <mxCell id="408" value="Address" style="rounded=1;whiteSpace=wrap;html=1;absoluteArcSize=1;arcSize=14;strokeWidth=2;" parent="362" vertex="1">
                    <mxGeometry x="329.5000000000001" y="373.25" width="60" height="40" as="geometry"/>
                </mxCell>
                <mxCell id="475" value="&lt;h1&gt;Exporting&lt;/h1&gt;&lt;p&gt;Here we would export an entire ravenWallet as one file with the seeds / pk wallet of each account by account&amp;nbsp;&lt;/p&gt;" style="text;html=1;strokeColor=none;fillColor=none;spacing=5;spacingTop=-20;whiteSpace=wrap;overflow=hidden;rounded=0;" parent="362" vertex="1">
                    <mxGeometry x="191" y="29" width="132" height="144" as="geometry"/>
                </mxCell>
                <mxCell id="477" value="Account 1&lt;br&gt;- imported seed&lt;br&gt;- leader seed (blessed)&lt;br&gt;- imported pk&lt;br&gt;" style="text;html=1;align=center;verticalAlign=middle;resizable=0;points=[];autosize=1;strokeColor=none;" parent="362" vertex="1">
                    <mxGeometry x="415" y="45" width="132" height="57" as="geometry"/>
                </mxCell>
                <mxCell id="481" value="&lt;h1&gt;Blessed&lt;/h1&gt;&lt;p&gt;Blessed means if I ask for a receive address for an account I get it from the blessed wallet.&lt;/p&gt;" style="text;html=1;strokeColor=none;fillColor=none;spacing=5;spacingTop=-20;whiteSpace=wrap;overflow=hidden;rounded=0;" parent="362" vertex="1">
                    <mxGeometry x="323" y="133" width="275" height="85" as="geometry"/>
                </mxCell>
                <mxCell id="383" value="Imported Seed Wallet" style="rounded=1;whiteSpace=wrap;html=1;absoluteArcSize=1;arcSize=14;strokeWidth=2;" parent="1" vertex="1">
                    <mxGeometry x="79.5" y="822.25" width="80" height="60" as="geometry"/>
                </mxCell>
                <mxCell id="390" value="Address" style="rounded=1;whiteSpace=wrap;html=1;absoluteArcSize=1;arcSize=14;strokeWidth=2;" parent="1" vertex="1">
                    <mxGeometry x="139.5" y="902.25" width="60" height="40" as="geometry"/>
                </mxCell>
                <mxCell id="391" style="edgeStyle=orthogonalEdgeStyle;rounded=0;orthogonalLoop=1;jettySize=auto;html=1;exitX=0.5;exitY=1;exitDx=0;exitDy=0;entryX=0;entryY=0.5;entryDx=0;entryDy=0;" parent="1" source="383" target="390" edge="1">
                    <mxGeometry relative="1" as="geometry"/>
                </mxCell>
                <mxCell id="392" value="Address" style="rounded=1;whiteSpace=wrap;html=1;absoluteArcSize=1;arcSize=14;strokeWidth=2;" parent="1" vertex="1">
                    <mxGeometry x="139.5" y="952.25" width="60" height="40" as="geometry"/>
                </mxCell>
                <mxCell id="393" style="edgeStyle=orthogonalEdgeStyle;rounded=0;orthogonalLoop=1;jettySize=auto;html=1;exitX=0.5;exitY=1;exitDx=0;exitDy=0;entryX=0;entryY=0.5;entryDx=0;entryDy=0;" parent="1" source="383" target="392" edge="1">
                    <mxGeometry relative="1" as="geometry"/>
                </mxCell>
                <mxCell id="394" value="Address" style="rounded=1;whiteSpace=wrap;html=1;absoluteArcSize=1;arcSize=14;strokeWidth=2;" parent="1" vertex="1">
                    <mxGeometry x="139.5" y="1002.25" width="60" height="40" as="geometry"/>
                </mxCell>
                <mxCell id="395" style="edgeStyle=orthogonalEdgeStyle;rounded=0;orthogonalLoop=1;jettySize=auto;html=1;exitX=0.5;exitY=1;exitDx=0;exitDy=0;entryX=0;entryY=0.5;entryDx=0;entryDy=0;" parent="1" source="383" target="394" edge="1">
                    <mxGeometry relative="1" as="geometry"/>
                </mxCell>
                <mxCell id="396" value="" style="shape=curlyBracket;whiteSpace=wrap;html=1;rounded=1;flipH=1;rotation=-90;" parent="1" vertex="1">
                    <mxGeometry x="564.57" y="623.45" width="24.88" height="351.5" as="geometry"/>
                </mxCell>
                <mxCell id="400" value="Seed Wallet" style="rounded=1;whiteSpace=wrap;html=1;absoluteArcSize=1;arcSize=14;strokeWidth=2;" parent="1" vertex="1">
                    <mxGeometry x="540.5000000000001" y="822.25" width="80" height="60" as="geometry"/>
                </mxCell>
                <mxCell id="401" value="Address" style="rounded=1;whiteSpace=wrap;html=1;absoluteArcSize=1;arcSize=14;strokeWidth=2;" parent="1" vertex="1">
                    <mxGeometry x="600.5000000000001" y="902.25" width="60" height="40" as="geometry"/>
                </mxCell>
                <mxCell id="402" style="edgeStyle=orthogonalEdgeStyle;rounded=0;orthogonalLoop=1;jettySize=auto;html=1;exitX=0.5;exitY=1;exitDx=0;exitDy=0;entryX=0;entryY=0.5;entryDx=0;entryDy=0;" parent="1" source="400" target="401" edge="1">
                    <mxGeometry relative="1" as="geometry"/>
                </mxCell>
                <mxCell id="403" value="Address" style="rounded=1;whiteSpace=wrap;html=1;absoluteArcSize=1;arcSize=14;strokeWidth=2;" parent="1" vertex="1">
                    <mxGeometry x="600.5000000000001" y="952.25" width="60" height="40" as="geometry"/>
                </mxCell>
                <mxCell id="404" style="edgeStyle=orthogonalEdgeStyle;rounded=0;orthogonalLoop=1;jettySize=auto;html=1;exitX=0.5;exitY=1;exitDx=0;exitDy=0;entryX=0;entryY=0.5;entryDx=0;entryDy=0;" parent="1" source="400" target="403" edge="1">
                    <mxGeometry relative="1" as="geometry"/>
                </mxCell>
                <mxCell id="405" value="Address" style="rounded=1;whiteSpace=wrap;html=1;absoluteArcSize=1;arcSize=14;strokeWidth=2;" parent="1" vertex="1">
                    <mxGeometry x="600.5000000000001" y="1002.25" width="60" height="40" as="geometry"/>
                </mxCell>
                <mxCell id="406" style="edgeStyle=orthogonalEdgeStyle;rounded=0;orthogonalLoop=1;jettySize=auto;html=1;exitX=0.5;exitY=1;exitDx=0;exitDy=0;entryX=0;entryY=0.5;entryDx=0;entryDy=0;" parent="1" source="400" target="405" edge="1">
                    <mxGeometry relative="1" as="geometry"/>
                </mxCell>
                <mxCell id="411" value="RavenWallet (option 2)" style="swimlane;" parent="1" vertex="1">
                    <mxGeometry x="40" y="1114" width="789" height="470" as="geometry"/>
                </mxCell>
                <mxCell id="412" value="BIP44&lt;br&gt;m/44'/175'/ACCOUNT'/0/0" style="text;html=1;strokeColor=none;fillColor=none;align=center;verticalAlign=middle;whiteSpace=wrap;rounded=0;" parent="411" vertex="1">
                    <mxGeometry x="346" y="25" width="83" height="36" as="geometry"/>
                </mxCell>
                <mxCell id="414" value="Account Wallet 0" style="rounded=1;whiteSpace=wrap;html=1;absoluteArcSize=1;arcSize=14;strokeWidth=2;" parent="411" vertex="1">
                    <mxGeometry x="166.7500000000001" y="232.5" width="80" height="60" as="geometry"/>
                </mxCell>
                <mxCell id="421" value="Address" style="rounded=1;whiteSpace=wrap;html=1;absoluteArcSize=1;arcSize=14;strokeWidth=2;" parent="411" vertex="1">
                    <mxGeometry x="226.7500000000001" y="312.5" width="60" height="40" as="geometry"/>
                </mxCell>
                <mxCell id="422" style="edgeStyle=orthogonalEdgeStyle;rounded=0;orthogonalLoop=1;jettySize=auto;html=1;exitX=0.5;exitY=1;exitDx=0;exitDy=0;entryX=0;entryY=0.5;entryDx=0;entryDy=0;strokeColor=#808080;" parent="411" source="414" target="421" edge="1">
                    <mxGeometry relative="1" as="geometry"/>
                </mxCell>
                <mxCell id="423" value="Address" style="rounded=1;whiteSpace=wrap;html=1;absoluteArcSize=1;arcSize=14;strokeWidth=2;" parent="411" vertex="1">
                    <mxGeometry x="226.7500000000001" y="362.5" width="60" height="40" as="geometry"/>
                </mxCell>
                <mxCell id="424" style="edgeStyle=orthogonalEdgeStyle;rounded=0;orthogonalLoop=1;jettySize=auto;html=1;exitX=0.5;exitY=1;exitDx=0;exitDy=0;entryX=0;entryY=0.5;entryDx=0;entryDy=0;strokeColor=#808080;" parent="411" source="414" target="423" edge="1">
                    <mxGeometry relative="1" as="geometry"/>
                </mxCell>
                <mxCell id="425" value="Address" style="rounded=1;whiteSpace=wrap;html=1;absoluteArcSize=1;arcSize=14;strokeWidth=2;" parent="411" vertex="1">
                    <mxGeometry x="226.7500000000001" y="412.5" width="60" height="40" as="geometry"/>
                </mxCell>
                <mxCell id="426" style="edgeStyle=orthogonalEdgeStyle;rounded=0;orthogonalLoop=1;jettySize=auto;html=1;exitX=0.5;exitY=1;exitDx=0;exitDy=0;entryX=0;entryY=0.5;entryDx=0;entryDy=0;strokeColor=#808080;" parent="411" source="414" target="425" edge="1">
                    <mxGeometry relative="1" as="geometry"/>
                </mxCell>
                <mxCell id="427" value="" style="shape=curlyBracket;whiteSpace=wrap;html=1;rounded=1;flipH=1;rotation=-90;" parent="411" vertex="1">
                    <mxGeometry x="178.6" y="53.59" width="25.62" height="309.7" as="geometry"/>
                </mxCell>
                <mxCell id="428" value="Account 1" style="text;html=1;strokeColor=none;fillColor=none;align=center;verticalAlign=middle;whiteSpace=wrap;rounded=0;" parent="411" vertex="1">
                    <mxGeometry x="106.41" y="152.5" width="170" height="43" as="geometry"/>
                </mxCell>
                <mxCell id="429" value="Account 2" style="text;html=1;strokeColor=none;fillColor=none;align=center;verticalAlign=middle;whiteSpace=wrap;rounded=0;" parent="411" vertex="1">
                    <mxGeometry x="500" y="152.5" width="76.5" height="20" as="geometry"/>
                </mxCell>
                <mxCell id="430" value="imported Seed Wallet" style="rounded=1;whiteSpace=wrap;html=1;absoluteArcSize=1;arcSize=14;strokeWidth=2;" parent="411" vertex="1">
                    <mxGeometry x="630" y="232.5" width="80" height="60" as="geometry"/>
                </mxCell>
                <mxCell id="431" value="Address" style="rounded=1;whiteSpace=wrap;html=1;absoluteArcSize=1;arcSize=14;strokeWidth=2;" parent="411" vertex="1">
                    <mxGeometry x="690" y="312.5" width="60" height="40" as="geometry"/>
                </mxCell>
                <mxCell id="432" style="edgeStyle=orthogonalEdgeStyle;rounded=0;orthogonalLoop=1;jettySize=auto;html=1;exitX=0.5;exitY=1;exitDx=0;exitDy=0;entryX=0;entryY=0.5;entryDx=0;entryDy=0;" parent="411" source="430" target="431" edge="1">
                    <mxGeometry relative="1" as="geometry"/>
                </mxCell>
                <mxCell id="433" value="Address" style="rounded=1;whiteSpace=wrap;html=1;absoluteArcSize=1;arcSize=14;strokeWidth=2;" parent="411" vertex="1">
                    <mxGeometry x="690" y="362.5" width="60" height="40" as="geometry"/>
                </mxCell>
                <mxCell id="434" style="edgeStyle=orthogonalEdgeStyle;rounded=0;orthogonalLoop=1;jettySize=auto;html=1;exitX=0.5;exitY=1;exitDx=0;exitDy=0;entryX=0;entryY=0.5;entryDx=0;entryDy=0;" parent="411" source="430" target="433" edge="1">
                    <mxGeometry relative="1" as="geometry"/>
                </mxCell>
                <mxCell id="435" value="Address" style="rounded=1;whiteSpace=wrap;html=1;absoluteArcSize=1;arcSize=14;strokeWidth=2;" parent="411" vertex="1">
                    <mxGeometry x="690" y="412.5" width="60" height="40" as="geometry"/>
                </mxCell>
                <mxCell id="436" style="edgeStyle=orthogonalEdgeStyle;rounded=0;orthogonalLoop=1;jettySize=auto;html=1;exitX=0.5;exitY=1;exitDx=0;exitDy=0;entryX=0;entryY=0.5;entryDx=0;entryDy=0;" parent="411" source="430" target="435" edge="1">
                    <mxGeometry relative="1" as="geometry"/>
                </mxCell>
                <mxCell id="437" style="edgeStyle=orthogonalEdgeStyle;rounded=0;orthogonalLoop=1;jettySize=auto;html=1;entryX=0;entryY=0.5;entryDx=0;entryDy=0;strokeColor=#F0F0F0;" parent="411" source="438" target="439" edge="1">
                    <mxGeometry relative="1" as="geometry"/>
                </mxCell>
                <mxCell id="438" value="imported PK Wallet" style="rounded=1;whiteSpace=wrap;html=1;absoluteArcSize=1;arcSize=14;strokeWidth=2;" parent="411" vertex="1">
                    <mxGeometry x="266" y="232.5" width="80" height="60" as="geometry"/>
                </mxCell>
                <mxCell id="439" value="Address" style="rounded=1;whiteSpace=wrap;html=1;absoluteArcSize=1;arcSize=14;strokeWidth=2;" parent="411" vertex="1">
                    <mxGeometry x="330.0000000000001" y="333" width="60" height="40" as="geometry"/>
                </mxCell>
                <mxCell id="463" value="Account&amp;nbsp; 2&lt;br&gt;Wallet" style="rounded=1;whiteSpace=wrap;html=1;absoluteArcSize=1;arcSize=14;strokeWidth=2;" parent="411" vertex="1">
                    <mxGeometry x="500.0000000000001" y="232.5" width="80" height="60" as="geometry"/>
                </mxCell>
                <mxCell id="464" value="Address" style="rounded=1;whiteSpace=wrap;html=1;absoluteArcSize=1;arcSize=14;strokeWidth=2;" parent="411" vertex="1">
                    <mxGeometry x="560.0000000000001" y="312.5" width="60" height="40" as="geometry"/>
                </mxCell>
                <mxCell id="465" style="edgeStyle=orthogonalEdgeStyle;rounded=0;orthogonalLoop=1;jettySize=auto;html=1;exitX=0.5;exitY=1;exitDx=0;exitDy=0;entryX=0;entryY=0.5;entryDx=0;entryDy=0;strokeColor=#808080;" parent="411" source="463" target="464" edge="1">
                    <mxGeometry relative="1" as="geometry"/>
                </mxCell>
                <mxCell id="466" value="Address&lt;br&gt;2'0/1" style="rounded=1;whiteSpace=wrap;html=1;absoluteArcSize=1;arcSize=14;strokeWidth=2;" parent="411" vertex="1">
                    <mxGeometry x="560.0000000000001" y="362.5" width="60" height="40" as="geometry"/>
                </mxCell>
                <mxCell id="467" style="edgeStyle=orthogonalEdgeStyle;rounded=0;orthogonalLoop=1;jettySize=auto;html=1;exitX=0.5;exitY=1;exitDx=0;exitDy=0;entryX=0;entryY=0.5;entryDx=0;entryDy=0;strokeColor=#808080;" parent="411" source="463" target="466" edge="1">
                    <mxGeometry relative="1" as="geometry"/>
                </mxCell>
                <mxCell id="468" value="Address" style="rounded=1;whiteSpace=wrap;html=1;absoluteArcSize=1;arcSize=14;strokeWidth=2;" parent="411" vertex="1">
                    <mxGeometry x="560.0000000000001" y="412.5" width="60" height="40" as="geometry"/>
                </mxCell>
                <mxCell id="469" style="edgeStyle=orthogonalEdgeStyle;rounded=0;orthogonalLoop=1;jettySize=auto;html=1;exitX=0.5;exitY=1;exitDx=0;exitDy=0;entryX=0;entryY=0.5;entryDx=0;entryDy=0;strokeColor=#808080;" parent="411" source="463" target="468" edge="1">
                    <mxGeometry relative="1" as="geometry"/>
                </mxCell>
                <mxCell id="440" value="imported Seed Wallet" style="rounded=1;whiteSpace=wrap;html=1;absoluteArcSize=1;arcSize=14;strokeWidth=2;" parent="1" vertex="1">
                    <mxGeometry x="80" y="1346.5" width="80" height="60" as="geometry"/>
                </mxCell>
                <mxCell id="441" value="Address" style="rounded=1;whiteSpace=wrap;html=1;absoluteArcSize=1;arcSize=14;strokeWidth=2;" parent="1" vertex="1">
                    <mxGeometry x="140" y="1426.5" width="60" height="40" as="geometry"/>
                </mxCell>
                <mxCell id="442" style="edgeStyle=orthogonalEdgeStyle;rounded=0;orthogonalLoop=1;jettySize=auto;html=1;exitX=0.5;exitY=1;exitDx=0;exitDy=0;entryX=0;entryY=0.5;entryDx=0;entryDy=0;" parent="1" source="440" target="441" edge="1">
                    <mxGeometry relative="1" as="geometry"/>
                </mxCell>
                <mxCell id="443" value="Address" style="rounded=1;whiteSpace=wrap;html=1;absoluteArcSize=1;arcSize=14;strokeWidth=2;" parent="1" vertex="1">
                    <mxGeometry x="140" y="1476.5" width="60" height="40" as="geometry"/>
                </mxCell>
                <mxCell id="444" style="edgeStyle=orthogonalEdgeStyle;rounded=0;orthogonalLoop=1;jettySize=auto;html=1;exitX=0.5;exitY=1;exitDx=0;exitDy=0;entryX=0;entryY=0.5;entryDx=0;entryDy=0;" parent="1" source="440" target="443" edge="1">
                    <mxGeometry relative="1" as="geometry"/>
                </mxCell>
                <mxCell id="445" value="Address" style="rounded=1;whiteSpace=wrap;html=1;absoluteArcSize=1;arcSize=14;strokeWidth=2;" parent="1" vertex="1">
                    <mxGeometry x="140" y="1526.5" width="60" height="40" as="geometry"/>
                </mxCell>
                <mxCell id="446" style="edgeStyle=orthogonalEdgeStyle;rounded=0;orthogonalLoop=1;jettySize=auto;html=1;exitX=0.5;exitY=1;exitDx=0;exitDy=0;entryX=0;entryY=0.5;entryDx=0;entryDy=0;" parent="1" source="440" target="445" edge="1">
                    <mxGeometry relative="1" as="geometry"/>
                </mxCell>
                <mxCell id="447" value="" style="shape=curlyBracket;whiteSpace=wrap;html=1;rounded=1;flipH=1;rotation=-90;" parent="1" vertex="1">
                    <mxGeometry x="553.75" y="1133.25" width="47.5" height="351.5" as="geometry"/>
                </mxCell>
                <mxCell id="470" style="edgeStyle=orthogonalEdgeStyle;rounded=0;orthogonalLoop=1;jettySize=auto;html=1;strokeColor=#808080;" parent="1" source="455" target="414" edge="1">
                    <mxGeometry relative="1" as="geometry">
                        <Array as="points">
                            <mxPoint x="425" y="1296"/>
                            <mxPoint x="247" y="1296"/>
                        </Array>
                    </mxGeometry>
                </mxCell>
                <mxCell id="471" style="edgeStyle=orthogonalEdgeStyle;rounded=0;orthogonalLoop=1;jettySize=auto;html=1;entryX=0.5;entryY=0;entryDx=0;entryDy=0;strokeColor=#808080;" parent="1" source="455" target="463" edge="1">
                    <mxGeometry relative="1" as="geometry">
                        <Array as="points">
                            <mxPoint x="425" y="1296"/>
                            <mxPoint x="580" y="1296"/>
                        </Array>
                    </mxGeometry>
                </mxCell>
                <mxCell id="472" style="edgeStyle=orthogonalEdgeStyle;rounded=0;orthogonalLoop=1;jettySize=auto;html=1;strokeColor=#808080;" parent="1" source="455" target="456" edge="1">
                    <mxGeometry relative="1" as="geometry"/>
                </mxCell>
                <mxCell id="455" value="Master Seed&amp;nbsp;Wallet&lt;br&gt;(blessed)" style="rounded=1;whiteSpace=wrap;html=1;absoluteArcSize=1;arcSize=14;strokeWidth=2;" parent="1" vertex="1">
                    <mxGeometry x="385.0000000000001" y="1185" width="80" height="60" as="geometry"/>
                </mxCell>
                <mxCell id="456" value="Account&amp;nbsp; 1 Wallet" style="rounded=1;whiteSpace=wrap;html=1;absoluteArcSize=1;arcSize=14;strokeWidth=2;" parent="1" vertex="1">
                    <mxGeometry x="410.0000000000001" y="1346.5" width="80" height="60" as="geometry"/>
                </mxCell>
                <mxCell id="457" value="Address&lt;br&gt;1'/0/0" style="rounded=1;whiteSpace=wrap;html=1;absoluteArcSize=1;arcSize=14;strokeWidth=2;" parent="1" vertex="1">
                    <mxGeometry x="470.0000000000001" y="1426.5" width="60" height="40" as="geometry"/>
                </mxCell>
                <mxCell id="458" style="edgeStyle=orthogonalEdgeStyle;rounded=0;orthogonalLoop=1;jettySize=auto;html=1;exitX=0.5;exitY=1;exitDx=0;exitDy=0;entryX=0;entryY=0.5;entryDx=0;entryDy=0;strokeColor=#808080;" parent="1" source="456" target="457" edge="1">
                    <mxGeometry relative="1" as="geometry"/>
                </mxCell>
                <mxCell id="459" value="Address" style="rounded=1;whiteSpace=wrap;html=1;absoluteArcSize=1;arcSize=14;strokeWidth=2;" parent="1" vertex="1">
                    <mxGeometry x="470.0000000000001" y="1476.5" width="60" height="40" as="geometry"/>
                </mxCell>
                <mxCell id="460" style="edgeStyle=orthogonalEdgeStyle;rounded=0;orthogonalLoop=1;jettySize=auto;html=1;exitX=0.5;exitY=1;exitDx=0;exitDy=0;entryX=0;entryY=0.5;entryDx=0;entryDy=0;strokeColor=#808080;" parent="1" source="456" target="459" edge="1">
                    <mxGeometry relative="1" as="geometry"/>
                </mxCell>
                <mxCell id="461" value="Address" style="rounded=1;whiteSpace=wrap;html=1;absoluteArcSize=1;arcSize=14;strokeWidth=2;" parent="1" vertex="1">
                    <mxGeometry x="470.0000000000001" y="1526.5" width="60" height="40" as="geometry"/>
                </mxCell>
                <mxCell id="462" style="edgeStyle=orthogonalEdgeStyle;rounded=0;orthogonalLoop=1;jettySize=auto;html=1;exitX=0.5;exitY=1;exitDx=0;exitDy=0;entryX=0;entryY=0.5;entryDx=0;entryDy=0;strokeColor=#808080;" parent="1" source="456" target="461" edge="1">
                    <mxGeometry relative="1" as="geometry"/>
                </mxCell>
                <mxCell id="473" value="&lt;h1&gt;Cons&lt;/h1&gt;&lt;p&gt;This causes sweeping or looses the master seed upon exporting an individual account, separation of concerns.&lt;/p&gt;" style="text;html=1;strokeColor=none;fillColor=none;spacing=5;spacingTop=-20;whiteSpace=wrap;overflow=hidden;rounded=0;" parent="1" vertex="1">
                    <mxGeometry x="553.75" y="1150" width="190" height="99" as="geometry"/>
                </mxCell>
                <mxCell id="474" value="" style="endArrow=none;html=1;strokeColor=#FF0000;" parent="1" edge="1">
                    <mxGeometry width="50" height="50" relative="1" as="geometry">
                        <mxPoint x="22" y="1585" as="sourcePoint"/>
                        <mxPoint x="845" y="1115" as="targetPoint"/>
                    </mxGeometry>
                </mxCell>
                <mxCell id="476" value="Export.file" style="swimlane;horizontal=0;" parent="1" vertex="1">
                    <mxGeometry x="421" y="561.5" width="400" height="89.5" as="geometry"/>
                </mxCell>
                <mxCell id="478" value="Account 2&lt;br&gt;- leader seed (blessed)&lt;br&gt;- leader seed&lt;br&gt;- imported seed" style="text;html=1;align=center;verticalAlign=middle;resizable=0;points=[];autosize=1;strokeColor=none;" parent="1" vertex="1">
                    <mxGeometry x="648" y="577.75" width="132" height="57" as="geometry"/>
                </mxCell>
                <mxCell id="479" style="edgeStyle=orthogonalEdgeStyle;rounded=0;orthogonalLoop=1;jettySize=auto;html=1;entryX=0;entryY=0.5;entryDx=0;entryDy=0;strokeColor=#FFFFFF;" parent="1" source="475" target="476" edge="1">
                    <mxGeometry relative="1" as="geometry">
                        <Array as="points">
                            <mxPoint x="382" y="606"/>
                            <mxPoint x="382" y="606"/>
                        </Array>
                    </mxGeometry>
                </mxCell>
                <mxCell id="480" value="&lt;h1&gt;Change&lt;/h1&gt;&lt;p&gt;&lt;span&gt;generally all change gets sent back to the change address from the wallet it came from&lt;/span&gt;&lt;br&gt;&lt;/p&gt;" style="text;html=1;strokeColor=none;fillColor=none;spacing=5;spacingTop=-20;whiteSpace=wrap;overflow=hidden;rounded=0;" parent="1" vertex="1">
                    <mxGeometry x="54" y="561.5" width="171" height="114.5" as="geometry"/>
                </mxCell>
                <mxCell id="515" value="&lt;h1&gt;Seed Wallet&lt;/h1&gt;&lt;p&gt;A &quot;seed&quot; wallet is a BIP44 Compliant wallet.&lt;/p&gt;" style="text;html=1;strokeColor=none;fillColor=none;spacing=5;spacingTop=-20;whiteSpace=wrap;overflow=hidden;rounded=0;" parent="1" vertex="1">
                    <mxGeometry x="54" y="682" width="262" height="73" as="geometry"/>
                </mxCell>
            </root>
        </mxGraphModel>
    </diagram>
</mxfile>